<svg width="132" height="132" viewBox="0 0 132 132" fill="none" xmlns="http://www.w3.org/2000/svg">
<circle cx="66" cy="66" r="66" transform="rotate(90 66 66)" fill="#714A88"/>
<path d="M72.75 20V41.9996C72.75 44.5002 73.7377 46.8983 75.4959 48.6665C77.254 50.4347 79.6386 51.428 82.125 51.428H104V98.57C104 101.071 103.012 103.469 101.254 105.237C99.496 107.005 97.1114 107.998 94.625 107.998H66.35C66.45 107.496 66.5 106.968 66.5 106.427V86.9102C70.0421 82.8754 72.2032 77.804 72.6656 72.4418C73.1279 67.0797 71.8671 61.7098 69.0684 57.1221C66.2698 52.5343 62.0812 48.9709 57.1186 46.9559C52.156 44.9408 46.6814 44.5806 41.5 45.9281V29.4284C41.5 26.9278 42.4877 24.5297 44.2459 22.7615C46.004 20.9933 48.3886 20 50.875 20H72.75ZM79 21.5714V41.9996C79 42.8331 79.3292 43.6325 79.9153 44.2219C80.5013 44.8113 81.2962 45.1424 82.125 45.1424H102.438L79 21.5714ZM66.5 70.2848C66.5 72.7611 66.015 75.2132 65.0727 77.501C64.1305 79.7888 62.7493 81.8676 61.0083 83.6186C59.2672 85.3696 57.2002 86.7586 54.9253 87.7062C52.6505 88.6539 50.2123 89.1416 47.75 89.1416C45.2877 89.1416 42.8495 88.6539 40.5747 87.7062C38.2998 86.7586 36.2328 85.3696 34.4917 83.6186C32.7506 81.8676 31.3695 79.7888 30.4273 77.501C29.485 75.2132 29 72.7611 29 70.2848C29 65.2837 30.9754 60.4874 34.4917 56.951C38.0081 53.4147 42.7772 51.428 47.75 51.428C52.7228 51.428 57.4919 53.4147 61.0083 56.951C64.5246 60.4874 66.5 65.2837 66.5 70.2848ZM60.25 92.0581C56.4516 94.27 52.1392 95.4324 47.75 95.4272C43.3614 95.4343 39.049 94.2741 35.25 92.0644V106.433C35.2508 106.711 35.3246 106.983 35.4638 107.222C35.603 107.461 35.8028 107.659 36.0427 107.796C36.2826 107.933 36.5543 108.003 36.83 108C37.1057 107.997 37.3757 107.92 37.6125 107.778L47.75 101.713L57.8875 107.778C58.1248 107.921 58.3954 107.997 58.6716 108C58.9478 108.003 59.2199 107.932 59.46 107.795C59.7001 107.657 59.8998 107.458 60.0385 107.218C60.1773 106.978 60.2503 106.705 60.25 106.427V92.0581Z" fill="#F5F5F5"/>
</svg>
