<svg width="132" height="132" viewBox="0 0 132 132" fill="none" xmlns="http://www.w3.org/2000/svg">
<circle cx="66" cy="66" r="66" transform="rotate(90 66 66)" fill="#9D2E7F"/>
<path d="M100 48.5L74.875 23H41.375C39.1538 23 37.0236 23.8955 35.453 25.4896C33.8824 27.0837 33 29.2457 33 31.5V99.5C33 101.754 33.8824 103.916 35.453 105.51C37.0236 107.104 39.1538 108 41.375 108H91.625C93.8462 108 95.9764 107.104 97.547 105.51C99.1176 103.916 100 101.754 100 99.5V48.5ZM53.9375 95.25H45.5625V57H53.9375V95.25ZM70.6875 95.25H62.3125V69.75H70.6875V95.25ZM87.4375 95.25H79.0625V82.5H87.4375V95.25ZM74.875 52.75H70.6875V31.5L91.625 52.75H74.875Z" fill="#F5F5F5"/>
</svg>
