<svg width="132" height="132" viewBox="0 0 132 132" fill="none" xmlns="http://www.w3.org/2000/svg">
<circle cx="66" cy="66" r="66" transform="rotate(90 66 66)" fill="#714A88"/>
<path d="M102.681 25.5962C102.436 24.9886 101.965 24.4984 101.365 24.2277C100.766 23.9569 100.085 23.9265 99.4639 24.1426C98.8427 24.3587 98.3291 24.8049 98.0301 25.3881C97.731 25.9714 97.6695 26.6469 97.8583 27.2742C101.785 38.5025 93.9907 46.8879 88.0478 51.3793L85.6469 47.9561C84.8396 46.808 83.0347 45.8534 81.6314 45.8366L68.1562 45.8955C66.5101 45.9449 64.908 46.4361 63.5194 47.3169L23.8123 75.0176C22.8887 75.6642 22.2603 76.6486 22.0646 77.7552C21.8689 78.8618 22.1219 80.0005 22.7683 80.9219L40.8127 106.608C42.1653 108.522 44.3252 108.29 46.2527 106.953L85.9597 79.2481C87.101 78.4449 88.4198 76.7123 88.8847 75.3876L93.1031 62.1618C93.5681 60.8413 93.2849 58.8269 92.4775 57.6789L91.015 55.593C98.9953 49.5079 107.28 38.7548 102.681 25.5962ZM84.2056 64.9499C83.4741 65.4594 82.6488 65.8204 81.777 66.0124C80.9053 66.2045 80.004 66.2237 79.1247 66.069C78.2454 65.9144 77.4054 65.5889 76.6526 65.1111C75.8998 64.6334 75.249 64.0127 74.7374 63.2846C73.7015 61.8113 73.2956 59.9893 73.6086 58.2184C73.9216 56.4476 74.9281 54.8727 76.407 53.8394C77.5665 53.0312 78.9508 52.6036 80.3664 52.6164C81.7821 52.6293 83.1583 53.0818 84.3028 53.9109C83.1531 54.6006 82.3627 55.0043 82.2147 55.0674C81.6908 55.3159 81.2672 55.7342 81.0134 56.2536C80.7597 56.773 80.6907 57.3628 80.818 57.9262C80.9452 58.4897 81.261 58.9935 81.7137 59.355C82.1663 59.7166 82.729 59.9144 83.3095 59.9161C83.673 59.9161 84.045 59.832 84.3958 59.668C85.2158 59.2811 86.095 58.8227 87.0122 58.2802C87.2232 59.5421 87.0717 60.8376 86.5752 62.0176C86.0786 63.1976 85.2572 64.214 84.2056 64.9499Z" fill="#F5F5F5"/>
</svg>
