<svg width="132" height="132" viewBox="0 0 132 132" fill="none" xmlns="http://www.w3.org/2000/svg">
<circle cx="66" cy="66" r="66" transform="rotate(90 66 66)" fill="#714A88"/>
<path fill-rule="evenodd" clip-rule="evenodd" d="M66.5836 24C56.6939 24 47.6821 27.2744 42.3507 29.9496C41.8691 30.191 41.4202 30.4281 41.002 30.6563C40.1744 31.1084 39.4694 31.5298 38.9089 31.9007L44.9737 40.8503L47.8288 41.9894C58.9862 47.6317 73.949 47.6317 85.1086 41.9894L88.349 40.3039L94.0854 31.9007C92.897 31.1237 91.6612 30.4223 90.3852 29.8004C85.0823 27.1537 76.2873 24 66.5836 24ZM52.477 34.1304C50.3294 33.7276 48.2082 33.194 46.1254 32.5327C51.1195 30.3096 58.5637 27.9503 66.5814 27.9503C72.1361 27.9503 77.3886 29.0828 81.7325 30.518C76.642 31.2357 71.2099 32.4537 66.0341 33.9526C61.9617 35.1333 57.2018 35.0061 52.477 34.1304V34.1304ZM87.4207 45.244L86.8842 45.5161C74.608 51.7225 58.3272 51.7225 46.0509 45.5161L45.543 45.2572C27.1034 65.5377 13.0252 103 66.5836 103C120.138 103 105.716 64.8376 87.4207 45.244ZM64.3066 63.5033C63.1452 63.5033 62.0314 63.9657 61.2102 64.7889C60.389 65.612 59.9277 66.7284 59.9277 67.8925C59.9277 69.0566 60.389 70.1731 61.2102 70.9962C62.0314 71.8194 63.1452 72.2818 64.3066 72.2818V63.5033ZM68.6855 59.114V56.9194H64.3066V59.114C61.9839 59.114 59.7563 60.0389 58.1139 61.6852C56.4715 63.3315 55.5488 65.5643 55.5488 67.8925C55.5488 70.2208 56.4715 72.4536 58.1139 74.0999C59.7563 75.7462 61.9839 76.6711 64.3066 76.6711V85.4496C63.401 85.4498 62.5176 85.1686 61.7781 84.6447C61.0386 84.1207 60.4793 83.3799 60.1773 82.5241C59.9839 81.9753 59.5809 81.5259 59.057 81.2748C58.5331 81.0237 57.9311 80.9916 57.3835 81.1854C56.836 81.3792 56.3876 81.7831 56.1372 82.3083C55.8867 82.8335 55.8546 83.4369 56.048 83.9857C56.6519 85.6975 57.7704 87.1795 59.2494 88.2277C60.7284 89.2759 62.4952 89.8388 64.3066 89.8388V92.0334H68.6855V89.8388C71.0082 89.8388 73.2358 88.9139 74.8782 87.2677C76.5206 85.6214 77.4433 83.3885 77.4433 81.0603C77.4433 78.7321 76.5206 76.4993 74.8782 74.853C73.2358 73.2067 71.0082 72.2818 68.6855 72.2818V63.5033C70.5903 63.5033 72.2127 64.7213 72.817 66.4287C72.9067 66.7081 73.0513 66.9666 73.2424 67.1889C73.4334 67.4112 73.667 67.5929 73.9293 67.7232C74.1917 67.8534 74.4774 67.9296 74.7696 67.9473C75.0618 67.9649 75.3546 67.9236 75.6306 67.8259C75.9067 67.7281 76.1603 67.5759 76.3766 67.3781C76.5929 67.1804 76.7675 66.9412 76.8899 66.6747C77.0124 66.4081 77.0803 66.1197 77.0896 65.8264C77.0989 65.5331 77.0494 65.2409 76.9441 64.9671C76.3402 63.2554 75.2217 61.7734 73.7427 60.7251C72.2637 59.6769 70.4969 59.1141 68.6855 59.114ZM68.6855 76.6711V85.4496C69.8469 85.4496 70.9607 84.9871 71.7819 84.164C72.6031 83.3408 73.0644 82.2244 73.0644 81.0603C73.0644 79.8962 72.6031 78.7798 71.7819 77.9566C70.9607 77.1335 69.8469 76.6711 68.6855 76.6711Z" fill="#F5F5F5"/>
</svg>
