<svg width="132" height="132" viewBox="0 0 132 132" fill="none" xmlns="http://www.w3.org/2000/svg">
<circle cx="66" cy="66" r="66" transform="rotate(90 66 66)" fill="#9D2E7F"/>
<path d="M58.3528 28.1373L57.097 27.3539C54.6391 25.8548 51.5712 24.9839 48.9339 25.8013C46.0992 26.6793 43.8386 28.8512 42.6545 32.1134L40.9681 31.2497C38.0617 29.7613 36.5403 29.7381 35.279 30.302C34.2725 30.75 33.223 31.8279 32.0335 33.4019L46.8168 44.7716C49.1312 45.5211 52.522 45.5033 55.9129 44.6288C59.3216 43.7544 62.7125 42.0412 65.1883 39.739L70.7679 26.0154C65.8521 22.1518 61.3669 24.3897 58.3528 28.1373V28.1373ZM67.8794 41.7913C64.8295 44.8608 60.2904 46.931 56.7561 47.859C55.5182 48.1802 54.2802 48.4122 53.0782 48.5371C52.4144 49.6257 51.8582 50.7322 51.4276 51.8386C52.2888 56.193 53.9035 59.7622 56.3255 62.689L53.742 64.8305C52.2529 63.0459 50.9253 61.1185 49.9206 58.977C49.7591 63.1173 50.6921 67.4003 52.217 71.8618L49.0415 72.9326C46.2427 64.7948 45.2918 56.4607 49.2209 48.6085C47.8933 48.5014 46.6374 48.2516 45.4713 47.8411L45.4174 47.8233C44.646 48.5549 43.9104 49.3223 43.2107 50.1254C37.5468 56.657 34.4268 65.348 36.0595 72.1117C36.9332 75.7344 38.4994 79.1609 40.7528 82.0876C44.0539 82.0162 47.1756 82.0876 50.0103 83.1584C51.3559 83.0156 52.7373 82.9264 54.1726 82.9264C59.2858 82.9264 63.9145 83.8722 67.413 85.514C68.7765 86.1565 70.0144 86.9239 71.0012 87.7983C71.0012 86.8525 71.1447 85.8353 71.4317 85.0857C69.835 83.5867 68.8303 81.7664 68.8303 79.6962C68.8303 76.823 70.75 74.4495 73.5308 72.7363C73.5308 71.9154 73.6923 71.1301 73.9794 70.3806C72.1673 68.828 71.0012 66.9006 71.0012 64.652C71.0012 63.2422 71.4676 61.9573 72.257 60.7973C71.4676 59.6552 71.0012 58.3703 71.0012 56.9604C71.0012 56.2644 71.1088 55.622 71.3062 54.9974C69.5659 53.4626 68.4715 51.5709 68.4715 49.3937C68.4715 47.2343 69.548 45.3605 71.2703 43.8436C70.2118 43.0227 69.0815 42.3267 67.8794 41.7913V41.7913ZM87.8656 42.2018C83.201 42.2018 78.9849 43.1833 76.0964 44.6288C73.19 46.0743 71.8264 47.859 71.8264 49.3937C71.8264 50.9463 73.19 52.7309 76.0964 54.1764C78.9849 55.622 83.201 56.6035 87.8656 56.6035C89.8929 56.6035 91.8126 56.4072 93.5888 56.086V53.0521C96.0826 52.6774 98.1458 51.9992 99.4734 51.1248V54.2657C101.716 53.6232 103.869 51.2497 103.923 49.3937C103.923 47.859 102.559 46.0743 99.6528 44.6288C96.7464 43.1833 92.5482 42.2018 87.8656 42.2018V42.2018ZM105.179 54.2835C104.587 54.9081 103.887 55.497 103.097 56.0324L103.133 61.2078C105.394 59.8693 106.452 58.3167 106.452 56.9604C106.452 56.1038 106.04 55.1758 105.179 54.2835V54.2835ZM74.3561 57.0318C74.4099 58.5666 75.7734 60.2976 78.6261 61.7253C81.5325 63.1887 85.7306 64.1524 90.4132 64.1524C93.3376 64.1524 96.0826 63.7597 98.4328 63.1173L98.5584 58.2632C95.4726 59.3339 91.8126 59.9229 87.8656 59.9229C82.7525 59.9229 78.1058 58.9056 74.5893 57.1567C74.4996 57.121 74.4279 57.0675 74.3561 57.0318V57.0318ZM74.7149 63.2422C74.4638 63.7241 74.3561 64.2059 74.3561 64.652C74.3561 66.2047 75.7196 67.9892 78.6261 69.4348C81.5325 70.8803 85.7306 71.844 90.4132 71.844C92.7814 71.844 95.024 71.612 97.0514 71.1658V66.8828C94.9702 67.2754 92.7455 67.4717 90.4132 67.4717C85.2821 67.4717 80.6354 66.4723 77.119 64.7056C76.2399 64.2773 75.4326 63.7776 74.7149 63.2422V63.2422ZM106.094 63.2422C104.999 64.0096 104.048 64.5807 102.936 65.0625V69.0422C105.322 67.668 106.452 66.0619 106.452 64.652C106.452 64.2059 106.345 63.7241 106.094 63.2422ZM107.439 69.8095C107.08 70.1665 106.686 70.5055 106.255 70.8446V76.6267C108.103 75.3775 109 74.0034 109 72.7541C109 71.8083 108.48 70.7911 107.439 69.8095ZM76.9217 72.308C76.9037 72.4686 76.8858 72.6114 76.8858 72.7541C76.8858 74.3067 78.2493 76.0735 81.1557 77.519C84.0621 78.9824 88.2783 79.9461 92.9429 79.9461C95.6161 79.9461 98.1637 79.6248 100.37 79.0895V73.7535C97.4461 74.6815 94.0552 75.1812 90.4132 75.1812C85.2821 75.1812 80.6354 74.164 77.119 72.4151C77.0473 72.3794 76.9934 72.3437 76.9217 72.308V72.308ZM74.4817 76.127C72.9208 77.287 72.1853 78.5541 72.1853 79.6962C72.1853 81.2488 73.5488 83.0156 76.4552 84.479C79.3616 85.9245 83.5598 86.8882 88.2424 86.8882C89.9468 86.8882 91.5973 86.7633 93.1402 86.5313V83.2833H92.9429C87.8118 83.2833 83.1651 82.2661 79.6487 80.4993C77.4061 79.3928 75.5402 77.9116 74.4817 76.127V76.127ZM103.636 81.5879C102.218 82.0876 100.675 82.4981 99.0249 82.7657V84.9251C99.3657 84.7823 99.7066 84.6396 100.03 84.479C101.788 83.5867 102.972 82.5873 103.636 81.5879V81.5879ZM105.286 84.8359C104.604 85.514 103.815 86.1208 102.936 86.674V91.778C105.322 90.4217 106.452 88.8155 106.452 87.4057C106.452 86.5848 106.076 85.6925 105.286 84.8359V84.8359ZM42.7263 85.3356C40.8963 85.3534 38.9228 85.5854 36.8776 86.0673C32.7852 87.0131 29.267 88.7442 26.9706 90.6537C24.6742 92.5454 23.7771 94.4727 24.0462 95.8469C24.3153 97.221 25.7327 98.4881 28.4956 99.2198C31.2495 99.9336 35.1014 99.9693 39.1919 99.0235C40.8425 98.6308 42.3854 98.1312 43.8028 97.5422V93.8481C46.4221 92.6881 48.3777 91.2961 49.2568 89.9398V94.2943C51.4276 92.4383 52.2709 90.5823 52.0197 89.226C51.7685 87.8519 50.3332 86.5848 47.5703 85.871C46.1889 85.514 44.5383 85.3177 42.7263 85.3356ZM54.3161 86.2636C54.8005 86.9596 55.1414 87.7448 55.3208 88.6192C55.5182 89.69 55.4285 90.7251 55.1055 91.7423C56.8817 92.2063 58.4964 92.8309 59.8957 93.6161C60.6851 94.0444 61.4207 94.562 62.0666 95.0973C63.6813 94.7226 65.0448 94.1872 66.0136 93.5447V97.221C68.9021 95.8647 70.2297 94.205 70.2297 92.8844C70.2297 91.546 68.9021 89.8863 65.9957 88.53C63.1072 87.1916 58.9449 86.2814 54.3161 86.2636V86.2636ZM74.3741 87.1559C74.3561 87.2272 74.3561 87.3165 74.3561 87.4057C74.3561 88.9583 75.7196 90.7251 78.6261 92.1884C81.5325 93.634 85.7306 94.5976 90.4132 94.5976C92.7814 94.5976 95.024 94.3478 97.0514 93.9195V89.1189C94.3961 89.8328 91.4 90.2254 88.2424 90.2254C83.1113 90.2254 78.4646 89.2082 74.9482 87.4592C74.7508 87.3522 74.5535 87.2451 74.3741 87.1559V87.1559ZM74.8764 93.8124C74.5176 94.4013 74.3561 94.9724 74.3561 95.5256C74.3561 97.0782 75.7196 98.845 78.6261 100.308C81.5325 101.754 85.7306 102.718 90.4132 102.718C92.7814 102.718 95.024 102.468 97.0514 102.039V97.3281C94.9702 97.7207 92.7455 97.9349 90.4132 97.9349C85.2821 97.9349 80.6354 96.9176 77.119 95.1509C76.3117 94.7583 75.5582 94.3121 74.8764 93.8124V93.8124ZM105.932 93.8124C104.892 94.5084 103.977 95.0616 102.936 95.5078V99.8979C105.322 98.5416 106.452 96.9355 106.452 95.5256C106.452 94.9724 106.291 94.4013 105.932 93.8124V93.8124ZM53.437 94.7761C52.8091 95.5613 52.0735 96.3109 51.2482 96.989C48.4494 99.3268 44.5024 101.219 39.9455 102.271C38.32 102.646 36.7053 102.878 35.1552 103.003C35.7293 103.949 36.7394 104.877 38.2177 105.698C40.6631 107.072 44.2513 108 48.2342 108C50.0462 108 51.7685 107.804 53.3473 107.465V103.753C55.8232 103.378 57.9043 102.7 59.2319 101.825V105.109C61.026 103.86 61.8872 102.45 61.8872 101.111C61.8872 99.5588 60.721 97.8992 58.2631 96.525C56.9355 95.7933 55.2849 95.1866 53.437 94.7761V94.7761Z" fill="#F5F5F5"/>
</svg>
