<svg width="132" height="132" viewBox="0 0 132 132" fill="none" xmlns="http://www.w3.org/2000/svg">
<circle cx="66" cy="66" r="66" transform="rotate(90 66 66)" fill="#714A88"/>
<path d="M39.5026 100H30.8534C30.3618 100 29.8904 99.8053 29.5428 99.4587C29.1953 99.1121 29 98.642 29 98.1518V40.2411C29 39.7509 29.1953 39.2808 29.5428 38.9342C29.8904 38.5876 30.3618 38.3929 30.8534 38.3929H39.5026C39.9941 38.3929 40.4655 38.5876 40.8131 38.9342C41.1607 39.2808 41.356 39.7509 41.356 40.2411V98.1518C41.356 98.642 41.1607 99.1121 40.8131 99.4587C40.4655 99.8053 39.9941 100 39.5026 100ZM63.5967 58.1071V50.0982C63.5967 49.608 63.4014 49.1379 63.0538 48.7913C62.7063 48.4447 62.2348 48.25 61.7433 48.25H45.6805C45.189 48.25 44.7176 48.4447 44.37 48.7913C44.0224 49.1379 43.8271 49.608 43.8271 50.0982V58.1071H63.5967ZM43.8271 90.1429V98.1518C43.8271 98.642 44.0224 99.1121 44.37 99.4587C44.7176 99.8053 45.189 100 45.6805 100H61.7433C62.2348 100 62.7063 99.8053 63.0538 99.4587C63.4014 99.1121 63.5967 98.642 63.5967 98.1518V90.1429H43.8271ZM43.8271 63.0357H63.5967V85.2143H43.8271V63.0357ZM79.0416 100H67.9213C67.4297 100 66.9583 99.8053 66.6107 99.4587C66.2631 99.1121 66.0679 98.642 66.0679 98.1518V32.8482C66.0679 32.358 66.2631 31.8879 66.6107 31.5413C66.9583 31.1947 67.4297 31 67.9213 31H79.0416C79.5332 31 80.0046 31.1947 80.3522 31.5413C80.6997 31.8879 80.895 32.358 80.895 32.8482V98.1518C80.895 98.642 80.6997 99.1121 80.3522 99.4587C80.0046 99.8053 79.5332 100 79.0416 100ZM83.5207 41.581L88.1541 98.2334C88.1747 98.4818 88.2454 98.7236 88.3621 98.944C88.4788 99.1645 88.639 99.3591 88.833 99.5162C89.0271 99.6734 89.251 99.7897 89.4914 99.8583C89.7317 99.9269 89.9834 99.9463 90.2315 99.9153L101.377 98.5291C101.851 98.47 102.284 98.2302 102.586 97.8599C102.887 97.4896 103.033 97.0175 102.994 96.5423L98.3478 40.1194C98.3273 39.8743 98.258 39.6358 98.144 39.4178C98.0299 39.1998 97.8733 39.0066 97.6835 38.8497C97.4936 38.6928 97.2743 38.5752 97.0382 38.5039C96.8022 38.4326 96.5543 38.409 96.3091 38.4344L85.1686 39.5911C84.6879 39.6429 84.2466 39.88 83.9387 40.2517C83.6308 40.6235 83.4808 41.1005 83.5207 41.581V41.581Z" fill="#F5F5F5"/>
</svg>
